<svg xmlns="http://www.w3.org/2000/svg" width="256" height="256" fill="none" viewBox="0 0 256 256"><path fill="#353e70" d="M215.5 24h-175C31.4 24 24 31.4 24 40.5v175c0 9.1 7.4 16.5 16.5 16.5h175c9.1 0 16.5-7.4 16.5-16.5v-175c0-9.1-7.4-16.5-16.5-16.5"/><rect width="207.5" height="203" x="24" y="24" fill="#6a7ce0" rx="16"/><path fill="#dadef2" d="M85.4 85.9a39.6 39.6 0 1 1 0 79.2 39.6 39.6 0 0 1 0-79.2M82 95.5a3.5 3.5 0 0 0-3.5 2.8l-1.6 7.8q-2.3 1-4.3 2.5L65 106c-1.6-.5-3.4.1-4.2 1.6l-3.3 5.7c-.8 1.5-.6 3.3.7 4.4l5.9 5.3a23 23 0 0 0 0 5l-5.9 5.2a3.5 3.5 0 0 0-.7 4.4l3.3 5.8A3.5 3.5 0 0 0 65 145l7.5-2.5q2 1.5 4.3 2.5l1.6 7.7a3.5 3.5 0 0 0 3.5 2.8h6.6q2.7-.1 3.5-2.8l1.5-7.7q2.3-1 4.4-2.5l7.5 2.5c1.6.5 3.3-.2 4.2-1.6l3.3-5.8c.8-1.4.5-3.2-.8-4.4l-5.9-5.2a23 23 0 0 0 0-5l6-5.3c1.2-1 1.5-3 .7-4.4l-3.4-5.7a3.5 3.5 0 0 0-4.1-1.6l-7.5 2.5q-2-1.6-4.4-2.5L92 98.3a3.5 3.5 0 0 0-3.4-2.8zm3.2 21.2a8.8 8.8 0 1 1 0 17.7 8.8 8.8 0 0 1 0-17.7"/><path fill="#ffce51" d="M140.3 125.5 209 85.8v79.4z"/></svg>