<svg xmlns="http://www.w3.org/2000/svg" width="512" height="512" fill="none" viewBox="0 0 512 512"><g filter="url(#a)"><rect width="512" height="501" fill="#6a7ce0" rx="40"/><path fill="#dadef2" d="M151.5 152.7a97.8 97.8 0 1 1 0 195.6 97.8 97.8 0 0 1 0-195.6m-8.5 23.8c-4.1 0-7.7 3-8.5 7l-4 19a53 53 0 0 0-10.7 6.2l-18.5-6.1c-3.9-1.3-8.2.3-10.3 4l-8.1 14a9 9 0 0 0 1.8 11l14.5 12.9a58 58 0 0 0 0 12.4l-14.5 13a9 9 0 0 0-1.8 10.8l8.1 14.1c2.1 3.6 6.4 5.3 10.3 4l18.6-6.2a51 51 0 0 0 10.7 6.3l4 19c.8 4 4.4 7 8.5 7h16.3c4.1 0 7.7-3 8.5-7l4-19a53 53 0 0 0 10.7-6.3l18.5 6.2c4 1.3 8.2-.4 10.3-4l8.2-14c2-3.7 1.3-8.2-1.8-11l-14.6-13a58 58 0 0 0 0-12.3l14.6-13a9 9 0 0 0 1.7-10.8l-8.1-14.1a9 9 0 0 0-10.3-4l-18.5 6.2a50 50 0 0 0-10.7-6.3l-4-19c-.8-4-4.4-7-8.5-7zm8 52.4a21.8 21.8 0 1 1 .2 43.6 21.8 21.8 0 0 1-.2-43.6"/><path fill="#ffce51" d="m287 250.5 169.5-97.9v195.8z"/></g><defs><filter id="a" width="512" height="512" x="0" y="0" color-interpolation-filters="sRGB" filterUnits="userSpaceOnUse"><feFlood flood-opacity="0" result="BackgroundImageFix"/><feColorMatrix in="SourceAlpha" result="hardAlpha" values="0 0 0 0 0 0 0 0 0 0 0 0 0 0 0 0 0 0 127 0"/><feOffset dy="11"/><feComposite in2="hardAlpha" operator="out"/><feColorMatrix values="0 0 0 0 0.207843 0 0 0 0 0.243137 0 0 0 0 0.439216 0 0 0 1 0"/><feBlend in2="BackgroundImageFix" result="effect1_dropShadow_1_2"/><feBlend in="SourceGraphic" in2="effect1_dropShadow_1_2" result="shape"/></filter></defs></svg>